<mxfile host="app.diagrams.net" agent="Mozilla/5.0 (Windows NT 10.0; Win64; x64) AppleWebKit/537.36 (KHTML, like Gecko) Chrome/134.0.0.0 Safari/537.36" version="26.2.9">
  <diagram id="R2lEEEUBdFMjLlhIrx00" name="Page-1">
    <mxGraphModel dx="816" dy="429" grid="1" gridSize="10" guides="1" tooltips="1" connect="1" arrows="1" fold="1" page="1" pageScale="1" pageWidth="850" pageHeight="1100" math="0" shadow="0" extFonts="Permanent Marker^https://fonts.googleapis.com/css?family=Permanent+Marker">
      <root>
        <mxCell id="0" />
        <mxCell id="1" parent="0" />
        <mxCell id="QL_OkkcnzwJI8uLKon0d-1" value="真题信息" style="rounded=0;whiteSpace=wrap;html=1;" vertex="1" parent="1">
          <mxGeometry x="90" y="377.5" width="70" height="30" as="geometry" />
        </mxCell>
        <mxCell id="QL_OkkcnzwJI8uLKon0d-49" style="rounded=0;orthogonalLoop=1;jettySize=auto;html=1;exitX=0.5;exitY=0;exitDx=0;exitDy=0;entryX=0.5;entryY=1;entryDx=0;entryDy=0;endArrow=none;startFill=0;" edge="1" parent="1" source="QL_OkkcnzwJI8uLKon0d-2" target="QL_OkkcnzwJI8uLKon0d-17">
          <mxGeometry relative="1" as="geometry" />
        </mxCell>
        <mxCell id="QL_OkkcnzwJI8uLKon0d-53" value="1" style="edgeLabel;html=1;align=center;verticalAlign=middle;resizable=0;points=[];" vertex="1" connectable="0" parent="QL_OkkcnzwJI8uLKon0d-49">
          <mxGeometry x="-0.056" y="1" relative="1" as="geometry">
            <mxPoint as="offset" />
          </mxGeometry>
        </mxCell>
        <mxCell id="QL_OkkcnzwJI8uLKon0d-66" style="rounded=0;orthogonalLoop=1;jettySize=auto;html=1;exitX=0.5;exitY=1;exitDx=0;exitDy=0;endArrow=none;startFill=0;entryX=0.5;entryY=0;entryDx=0;entryDy=0;" edge="1" parent="1" source="QL_OkkcnzwJI8uLKon0d-2" target="QL_OkkcnzwJI8uLKon0d-65">
          <mxGeometry relative="1" as="geometry">
            <mxPoint x="565" y="480" as="targetPoint" />
          </mxGeometry>
        </mxCell>
        <mxCell id="QL_OkkcnzwJI8uLKon0d-92" value="1" style="edgeLabel;html=1;align=center;verticalAlign=middle;resizable=0;points=[];" vertex="1" connectable="0" parent="QL_OkkcnzwJI8uLKon0d-66">
          <mxGeometry x="-0.0794" relative="1" as="geometry">
            <mxPoint as="offset" />
          </mxGeometry>
        </mxCell>
        <mxCell id="QL_OkkcnzwJI8uLKon0d-82" style="rounded=0;orthogonalLoop=1;jettySize=auto;html=1;exitX=1;exitY=0.5;exitDx=0;exitDy=0;entryX=0;entryY=0.5;entryDx=0;entryDy=0;endArrow=none;startFill=0;" edge="1" parent="1" source="QL_OkkcnzwJI8uLKon0d-2" target="QL_OkkcnzwJI8uLKon0d-77">
          <mxGeometry relative="1" as="geometry" />
        </mxCell>
        <mxCell id="QL_OkkcnzwJI8uLKon0d-103" value="1" style="edgeLabel;html=1;align=center;verticalAlign=middle;resizable=0;points=[];" vertex="1" connectable="0" parent="QL_OkkcnzwJI8uLKon0d-82">
          <mxGeometry x="0.0808" relative="1" as="geometry">
            <mxPoint as="offset" />
          </mxGeometry>
        </mxCell>
        <mxCell id="QL_OkkcnzwJI8uLKon0d-88" style="rounded=0;orthogonalLoop=1;jettySize=auto;html=1;exitX=0.5;exitY=1;exitDx=0;exitDy=0;entryX=1;entryY=0.5;entryDx=0;entryDy=0;endArrow=none;startFill=0;" edge="1" parent="1" source="QL_OkkcnzwJI8uLKon0d-2" target="QL_OkkcnzwJI8uLKon0d-78">
          <mxGeometry relative="1" as="geometry" />
        </mxCell>
        <mxCell id="QL_OkkcnzwJI8uLKon0d-90" value="1" style="edgeLabel;html=1;align=center;verticalAlign=middle;resizable=0;points=[];" vertex="1" connectable="0" parent="QL_OkkcnzwJI8uLKon0d-88">
          <mxGeometry x="0.0019" y="-1" relative="1" as="geometry">
            <mxPoint as="offset" />
          </mxGeometry>
        </mxCell>
        <mxCell id="QL_OkkcnzwJI8uLKon0d-2" value="小程序用户" style="rounded=0;whiteSpace=wrap;html=1;" vertex="1" parent="1">
          <mxGeometry x="520" y="355" width="70" height="30" as="geometry" />
        </mxCell>
        <mxCell id="QL_OkkcnzwJI8uLKon0d-55" style="rounded=0;orthogonalLoop=1;jettySize=auto;html=1;exitX=1;exitY=0.5;exitDx=0;exitDy=0;entryX=0;entryY=0.5;entryDx=0;entryDy=0;endArrow=none;startFill=0;" edge="1" parent="1" source="QL_OkkcnzwJI8uLKon0d-3" target="QL_OkkcnzwJI8uLKon0d-2">
          <mxGeometry relative="1" as="geometry" />
        </mxCell>
        <mxCell id="QL_OkkcnzwJI8uLKon0d-57" value="1" style="edgeLabel;html=1;align=center;verticalAlign=middle;resizable=0;points=[];" vertex="1" connectable="0" parent="QL_OkkcnzwJI8uLKon0d-55">
          <mxGeometry x="0.1" relative="1" as="geometry">
            <mxPoint as="offset" />
          </mxGeometry>
        </mxCell>
        <mxCell id="QL_OkkcnzwJI8uLKon0d-3" value="管理" style="rhombus;whiteSpace=wrap;html=1;" vertex="1" parent="1">
          <mxGeometry x="400" y="315" width="80" height="40" as="geometry" />
        </mxCell>
        <mxCell id="QL_OkkcnzwJI8uLKon0d-4" value="专业信息" style="rounded=0;whiteSpace=wrap;html=1;" vertex="1" parent="1">
          <mxGeometry x="90" y="425" width="70" height="30" as="geometry" />
        </mxCell>
        <mxCell id="QL_OkkcnzwJI8uLKon0d-47" style="rounded=0;orthogonalLoop=1;jettySize=auto;html=1;exitX=1;exitY=0.5;exitDx=0;exitDy=0;endArrow=none;startFill=0;entryX=0;entryY=0.5;entryDx=0;entryDy=0;" edge="1" parent="1" source="QL_OkkcnzwJI8uLKon0d-5" target="QL_OkkcnzwJI8uLKon0d-22">
          <mxGeometry relative="1" as="geometry">
            <mxPoint x="170" y="370" as="targetPoint" />
          </mxGeometry>
        </mxCell>
        <mxCell id="QL_OkkcnzwJI8uLKon0d-48" value="n" style="edgeLabel;html=1;align=center;verticalAlign=middle;resizable=0;points=[];" vertex="1" connectable="0" parent="QL_OkkcnzwJI8uLKon0d-47">
          <mxGeometry x="-0.2583" y="-1" relative="1" as="geometry">
            <mxPoint as="offset" />
          </mxGeometry>
        </mxCell>
        <mxCell id="QL_OkkcnzwJI8uLKon0d-5" value="院校信息" style="rounded=0;whiteSpace=wrap;html=1;" vertex="1" parent="1">
          <mxGeometry x="90" y="332.5" width="70" height="30" as="geometry" />
        </mxCell>
        <mxCell id="QL_OkkcnzwJI8uLKon0d-6" value="公告信息" style="rounded=0;whiteSpace=wrap;html=1;" vertex="1" parent="1">
          <mxGeometry x="90" y="290" width="70" height="30" as="geometry" />
        </mxCell>
        <mxCell id="QL_OkkcnzwJI8uLKon0d-7" value="交流论坛" style="rounded=0;whiteSpace=wrap;html=1;" vertex="1" parent="1">
          <mxGeometry x="90" y="245" width="70" height="30" as="geometry" />
        </mxCell>
        <mxCell id="QL_OkkcnzwJI8uLKon0d-8" value="管理员" style="rounded=0;whiteSpace=wrap;html=1;" vertex="1" parent="1">
          <mxGeometry x="300" y="355" width="70" height="30" as="geometry" />
        </mxCell>
        <mxCell id="QL_OkkcnzwJI8uLKon0d-9" value="考研倒计时" style="rounded=0;whiteSpace=wrap;html=1;" vertex="1" parent="1">
          <mxGeometry x="90" y="470" width="70" height="30" as="geometry" />
        </mxCell>
        <mxCell id="QL_OkkcnzwJI8uLKon0d-10" value="智能客服" style="rounded=0;whiteSpace=wrap;html=1;" vertex="1" parent="1">
          <mxGeometry x="280" y="427.5" width="70" height="30" as="geometry" />
        </mxCell>
        <mxCell id="QL_OkkcnzwJI8uLKon0d-58" value="" style="rounded=0;orthogonalLoop=1;jettySize=auto;html=1;endArrow=none;startFill=0;exitX=1;exitY=0.5;exitDx=0;exitDy=0;" edge="1" parent="1" source="QL_OkkcnzwJI8uLKon0d-11">
          <mxGeometry relative="1" as="geometry">
            <mxPoint x="520" y="370" as="targetPoint" />
          </mxGeometry>
        </mxCell>
        <mxCell id="QL_OkkcnzwJI8uLKon0d-60" value="1" style="edgeLabel;html=1;align=center;verticalAlign=middle;resizable=0;points=[];" vertex="1" connectable="0" parent="QL_OkkcnzwJI8uLKon0d-58">
          <mxGeometry x="-0.0577" relative="1" as="geometry">
            <mxPoint as="offset" />
          </mxGeometry>
        </mxCell>
        <mxCell id="QL_OkkcnzwJI8uLKon0d-59" style="rounded=0;orthogonalLoop=1;jettySize=auto;html=1;exitX=0;exitY=0.5;exitDx=0;exitDy=0;entryX=1;entryY=0.5;entryDx=0;entryDy=0;endArrow=none;startFill=0;" edge="1" parent="1" source="QL_OkkcnzwJI8uLKon0d-11" target="QL_OkkcnzwJI8uLKon0d-8">
          <mxGeometry relative="1" as="geometry" />
        </mxCell>
        <mxCell id="QL_OkkcnzwJI8uLKon0d-61" value="1" style="edgeLabel;html=1;align=center;verticalAlign=middle;resizable=0;points=[];" vertex="1" connectable="0" parent="QL_OkkcnzwJI8uLKon0d-59">
          <mxGeometry x="-0.1098" y="-1" relative="1" as="geometry">
            <mxPoint as="offset" />
          </mxGeometry>
        </mxCell>
        <mxCell id="QL_OkkcnzwJI8uLKon0d-11" value="留言" style="rhombus;whiteSpace=wrap;html=1;" vertex="1" parent="1">
          <mxGeometry x="400" y="385" width="80" height="40" as="geometry" />
        </mxCell>
        <mxCell id="QL_OkkcnzwJI8uLKon0d-50" style="rounded=0;orthogonalLoop=1;jettySize=auto;html=1;exitX=0;exitY=0.5;exitDx=0;exitDy=0;entryX=0.5;entryY=1;entryDx=0;entryDy=0;endArrow=none;startFill=0;" edge="1" parent="1" source="QL_OkkcnzwJI8uLKon0d-17" target="QL_OkkcnzwJI8uLKon0d-20">
          <mxGeometry relative="1" as="geometry" />
        </mxCell>
        <mxCell id="QL_OkkcnzwJI8uLKon0d-52" value="n" style="edgeLabel;html=1;align=center;verticalAlign=middle;resizable=0;points=[];" vertex="1" connectable="0" parent="QL_OkkcnzwJI8uLKon0d-50">
          <mxGeometry x="0.1836" y="1" relative="1" as="geometry">
            <mxPoint as="offset" />
          </mxGeometry>
        </mxCell>
        <mxCell id="QL_OkkcnzwJI8uLKon0d-17" value="查看" style="rhombus;whiteSpace=wrap;html=1;" vertex="1" parent="1">
          <mxGeometry x="480" y="260" width="80" height="40" as="geometry" />
        </mxCell>
        <mxCell id="QL_OkkcnzwJI8uLKon0d-71" style="rounded=0;orthogonalLoop=1;jettySize=auto;html=1;exitX=1;exitY=0.5;exitDx=0;exitDy=0;entryX=0;entryY=0.5;entryDx=0;entryDy=0;endArrow=none;startFill=0;" edge="1" parent="1" source="QL_OkkcnzwJI8uLKon0d-18" target="QL_OkkcnzwJI8uLKon0d-28">
          <mxGeometry relative="1" as="geometry" />
        </mxCell>
        <mxCell id="QL_OkkcnzwJI8uLKon0d-101" value="n" style="edgeLabel;html=1;align=center;verticalAlign=middle;resizable=0;points=[];" vertex="1" connectable="0" parent="QL_OkkcnzwJI8uLKon0d-71">
          <mxGeometry x="-0.0043" y="-1" relative="1" as="geometry">
            <mxPoint as="offset" />
          </mxGeometry>
        </mxCell>
        <mxCell id="QL_OkkcnzwJI8uLKon0d-18" value="发布" style="rhombus;whiteSpace=wrap;html=1;" vertex="1" parent="1">
          <mxGeometry x="590" y="262.5" width="80" height="40" as="geometry" />
        </mxCell>
        <mxCell id="QL_OkkcnzwJI8uLKon0d-20" value="系统页面" style="rounded=0;whiteSpace=wrap;html=1;" vertex="1" parent="1">
          <mxGeometry x="220" y="245" width="70" height="30" as="geometry" />
        </mxCell>
        <mxCell id="QL_OkkcnzwJI8uLKon0d-32" style="rounded=0;orthogonalLoop=1;jettySize=auto;html=1;exitX=0;exitY=0.5;exitDx=0;exitDy=0;entryX=1;entryY=0.5;entryDx=0;entryDy=0;endArrow=none;startFill=0;" edge="1" parent="1" source="QL_OkkcnzwJI8uLKon0d-22" target="QL_OkkcnzwJI8uLKon0d-7">
          <mxGeometry relative="1" as="geometry" />
        </mxCell>
        <mxCell id="QL_OkkcnzwJI8uLKon0d-41" value="n" style="edgeLabel;html=1;align=center;verticalAlign=middle;resizable=0;points=[];" vertex="1" connectable="0" parent="QL_OkkcnzwJI8uLKon0d-32">
          <mxGeometry x="-0.0246" y="1" relative="1" as="geometry">
            <mxPoint as="offset" />
          </mxGeometry>
        </mxCell>
        <mxCell id="QL_OkkcnzwJI8uLKon0d-33" style="rounded=0;orthogonalLoop=1;jettySize=auto;html=1;exitX=0;exitY=0.5;exitDx=0;exitDy=0;entryX=1;entryY=0.75;entryDx=0;entryDy=0;endArrow=none;startFill=0;" edge="1" parent="1" source="QL_OkkcnzwJI8uLKon0d-22" target="QL_OkkcnzwJI8uLKon0d-6">
          <mxGeometry relative="1" as="geometry" />
        </mxCell>
        <mxCell id="QL_OkkcnzwJI8uLKon0d-42" value="n" style="edgeLabel;html=1;align=center;verticalAlign=middle;resizable=0;points=[];" vertex="1" connectable="0" parent="QL_OkkcnzwJI8uLKon0d-33">
          <mxGeometry x="0.2136" y="1" relative="1" as="geometry">
            <mxPoint as="offset" />
          </mxGeometry>
        </mxCell>
        <mxCell id="QL_OkkcnzwJI8uLKon0d-22" value="管理" style="rhombus;whiteSpace=wrap;html=1;" vertex="1" parent="1">
          <mxGeometry x="200" y="350" width="80" height="40" as="geometry" />
        </mxCell>
        <mxCell id="QL_OkkcnzwJI8uLKon0d-23" value="真题信息" style="rounded=0;whiteSpace=wrap;html=1;" vertex="1" parent="1">
          <mxGeometry x="495" y="510" width="70" height="30" as="geometry" />
        </mxCell>
        <mxCell id="QL_OkkcnzwJI8uLKon0d-24" value="专业信息" style="rounded=0;whiteSpace=wrap;html=1;" vertex="1" parent="1">
          <mxGeometry x="400" y="510" width="70" height="30" as="geometry" />
        </mxCell>
        <mxCell id="QL_OkkcnzwJI8uLKon0d-25" value="院校信息" style="rounded=0;whiteSpace=wrap;html=1;" vertex="1" parent="1">
          <mxGeometry x="580" y="510" width="70" height="30" as="geometry" />
        </mxCell>
        <mxCell id="QL_OkkcnzwJI8uLKon0d-26" value="公告信息" style="rounded=0;whiteSpace=wrap;html=1;" vertex="1" parent="1">
          <mxGeometry x="680" y="510" width="70" height="30" as="geometry" />
        </mxCell>
        <mxCell id="QL_OkkcnzwJI8uLKon0d-27" value="交流论坛" style="rounded=0;whiteSpace=wrap;html=1;" vertex="1" parent="1">
          <mxGeometry x="730" y="302.5" width="70" height="30" as="geometry" />
        </mxCell>
        <mxCell id="QL_OkkcnzwJI8uLKon0d-28" value="考研倒计时" style="rounded=0;whiteSpace=wrap;html=1;" vertex="1" parent="1">
          <mxGeometry x="730" y="230" width="70" height="30" as="geometry" />
        </mxCell>
        <mxCell id="QL_OkkcnzwJI8uLKon0d-30" value="m" style="endArrow=none;html=1;rounded=0;exitX=1;exitY=0.5;exitDx=0;exitDy=0;entryX=0;entryY=0.5;entryDx=0;entryDy=0;" edge="1" parent="1" source="QL_OkkcnzwJI8uLKon0d-22" target="QL_OkkcnzwJI8uLKon0d-8">
          <mxGeometry relative="1" as="geometry">
            <mxPoint x="190" y="435" as="sourcePoint" />
            <mxPoint x="350" y="435" as="targetPoint" />
          </mxGeometry>
        </mxCell>
        <mxCell id="QL_OkkcnzwJI8uLKon0d-34" style="rounded=0;orthogonalLoop=1;jettySize=auto;html=1;exitX=0;exitY=0.5;exitDx=0;exitDy=0;entryX=1;entryY=0.5;entryDx=0;entryDy=0;endArrow=none;startFill=0;" edge="1" parent="1" source="QL_OkkcnzwJI8uLKon0d-22" target="QL_OkkcnzwJI8uLKon0d-1">
          <mxGeometry relative="1" as="geometry">
            <mxPoint x="180" y="380" as="sourcePoint" />
            <mxPoint x="140" y="255" as="targetPoint" />
          </mxGeometry>
        </mxCell>
        <mxCell id="QL_OkkcnzwJI8uLKon0d-43" value="n" style="edgeLabel;html=1;align=center;verticalAlign=middle;resizable=0;points=[];" vertex="1" connectable="0" parent="QL_OkkcnzwJI8uLKon0d-34">
          <mxGeometry x="0.2429" y="1" relative="1" as="geometry">
            <mxPoint as="offset" />
          </mxGeometry>
        </mxCell>
        <mxCell id="QL_OkkcnzwJI8uLKon0d-35" style="rounded=0;orthogonalLoop=1;jettySize=auto;html=1;entryX=1;entryY=0.5;entryDx=0;entryDy=0;endArrow=none;startFill=0;exitX=0;exitY=0.5;exitDx=0;exitDy=0;" edge="1" parent="1" source="QL_OkkcnzwJI8uLKon0d-22" target="QL_OkkcnzwJI8uLKon0d-4">
          <mxGeometry relative="1" as="geometry">
            <mxPoint x="200" y="370" as="sourcePoint" />
            <mxPoint x="140" y="380" as="targetPoint" />
          </mxGeometry>
        </mxCell>
        <mxCell id="QL_OkkcnzwJI8uLKon0d-44" value="n" style="edgeLabel;html=1;align=center;verticalAlign=middle;resizable=0;points=[];" vertex="1" connectable="0" parent="QL_OkkcnzwJI8uLKon0d-35">
          <mxGeometry x="0.1607" y="-1" relative="1" as="geometry">
            <mxPoint as="offset" />
          </mxGeometry>
        </mxCell>
        <mxCell id="QL_OkkcnzwJI8uLKon0d-36" style="rounded=0;orthogonalLoop=1;jettySize=auto;html=1;entryX=0;entryY=0.5;entryDx=0;entryDy=0;endArrow=none;startFill=0;exitX=0.5;exitY=1;exitDx=0;exitDy=0;" edge="1" parent="1" source="QL_OkkcnzwJI8uLKon0d-22" target="QL_OkkcnzwJI8uLKon0d-10">
          <mxGeometry relative="1" as="geometry">
            <mxPoint x="180" y="420" as="sourcePoint" />
            <mxPoint x="150" y="390" as="targetPoint" />
          </mxGeometry>
        </mxCell>
        <mxCell id="QL_OkkcnzwJI8uLKon0d-45" value="n" style="edgeLabel;html=1;align=center;verticalAlign=middle;resizable=0;points=[];" vertex="1" connectable="0" parent="QL_OkkcnzwJI8uLKon0d-36">
          <mxGeometry x="0.0229" y="-1" relative="1" as="geometry">
            <mxPoint as="offset" />
          </mxGeometry>
        </mxCell>
        <mxCell id="QL_OkkcnzwJI8uLKon0d-37" style="rounded=0;orthogonalLoop=1;jettySize=auto;html=1;entryX=1;entryY=0.5;entryDx=0;entryDy=0;endArrow=none;startFill=0;exitX=0;exitY=0.5;exitDx=0;exitDy=0;" edge="1" parent="1" source="QL_OkkcnzwJI8uLKon0d-22" target="QL_OkkcnzwJI8uLKon0d-9">
          <mxGeometry relative="1" as="geometry">
            <mxPoint x="170" y="370" as="sourcePoint" />
            <mxPoint x="160" y="400" as="targetPoint" />
          </mxGeometry>
        </mxCell>
        <mxCell id="QL_OkkcnzwJI8uLKon0d-46" value="n" style="edgeLabel;html=1;align=center;verticalAlign=middle;resizable=0;points=[];" vertex="1" connectable="0" parent="QL_OkkcnzwJI8uLKon0d-37">
          <mxGeometry x="0.0279" y="1" relative="1" as="geometry">
            <mxPoint x="1" as="offset" />
          </mxGeometry>
        </mxCell>
        <mxCell id="QL_OkkcnzwJI8uLKon0d-38" style="rounded=0;orthogonalLoop=1;jettySize=auto;html=1;exitX=0.5;exitY=1;exitDx=0;exitDy=0;entryX=0.5;entryY=0;entryDx=0;entryDy=0;endArrow=none;startFill=0;" edge="1" parent="1" source="QL_OkkcnzwJI8uLKon0d-20" target="QL_OkkcnzwJI8uLKon0d-22">
          <mxGeometry relative="1" as="geometry">
            <mxPoint x="210" y="410" as="sourcePoint" />
            <mxPoint x="170" y="410" as="targetPoint" />
          </mxGeometry>
        </mxCell>
        <mxCell id="QL_OkkcnzwJI8uLKon0d-40" value="n" style="edgeLabel;html=1;align=center;verticalAlign=middle;resizable=0;points=[];" vertex="1" connectable="0" parent="QL_OkkcnzwJI8uLKon0d-38">
          <mxGeometry x="0.1628" y="-2" relative="1" as="geometry">
            <mxPoint as="offset" />
          </mxGeometry>
        </mxCell>
        <mxCell id="QL_OkkcnzwJI8uLKon0d-54" style="rounded=0;orthogonalLoop=1;jettySize=auto;html=1;exitX=1;exitY=0.5;exitDx=0;exitDy=0;endArrow=none;startFill=0;entryX=0;entryY=0.5;entryDx=0;entryDy=0;" edge="1" parent="1" source="QL_OkkcnzwJI8uLKon0d-8" target="QL_OkkcnzwJI8uLKon0d-3">
          <mxGeometry relative="1" as="geometry">
            <mxPoint x="410" y="370" as="targetPoint" />
          </mxGeometry>
        </mxCell>
        <mxCell id="QL_OkkcnzwJI8uLKon0d-56" value="1" style="edgeLabel;html=1;align=center;verticalAlign=middle;resizable=0;points=[];" vertex="1" connectable="0" parent="QL_OkkcnzwJI8uLKon0d-54">
          <mxGeometry x="0.1286" relative="1" as="geometry">
            <mxPoint as="offset" />
          </mxGeometry>
        </mxCell>
        <mxCell id="QL_OkkcnzwJI8uLKon0d-62" style="rounded=0;orthogonalLoop=1;jettySize=auto;html=1;entryX=0;entryY=0.5;entryDx=0;entryDy=0;endArrow=none;startFill=0;" edge="1" parent="1" target="QL_OkkcnzwJI8uLKon0d-18">
          <mxGeometry relative="1" as="geometry">
            <mxPoint x="590" y="370" as="sourcePoint" />
          </mxGeometry>
        </mxCell>
        <mxCell id="QL_OkkcnzwJI8uLKon0d-100" value="1" style="edgeLabel;html=1;align=center;verticalAlign=middle;resizable=0;points=[];" vertex="1" connectable="0" parent="QL_OkkcnzwJI8uLKon0d-62">
          <mxGeometry x="0.0262" y="1" relative="1" as="geometry">
            <mxPoint as="offset" />
          </mxGeometry>
        </mxCell>
        <mxCell id="QL_OkkcnzwJI8uLKon0d-63" style="rounded=0;orthogonalLoop=1;jettySize=auto;html=1;exitX=1;exitY=0.5;exitDx=0;exitDy=0;entryX=0;entryY=0.5;entryDx=0;entryDy=0;endArrow=none;startFill=0;" edge="1" parent="1" source="QL_OkkcnzwJI8uLKon0d-18" target="QL_OkkcnzwJI8uLKon0d-27">
          <mxGeometry relative="1" as="geometry" />
        </mxCell>
        <mxCell id="QL_OkkcnzwJI8uLKon0d-102" value="n" style="edgeLabel;html=1;align=center;verticalAlign=middle;resizable=0;points=[];" vertex="1" connectable="0" parent="QL_OkkcnzwJI8uLKon0d-63">
          <mxGeometry x="0.0038" y="1" relative="1" as="geometry">
            <mxPoint as="offset" />
          </mxGeometry>
        </mxCell>
        <mxCell id="QL_OkkcnzwJI8uLKon0d-67" style="rounded=0;orthogonalLoop=1;jettySize=auto;html=1;exitX=0.5;exitY=1;exitDx=0;exitDy=0;entryX=0.5;entryY=0;entryDx=0;entryDy=0;endArrow=none;startFill=0;" edge="1" parent="1" source="QL_OkkcnzwJI8uLKon0d-65" target="QL_OkkcnzwJI8uLKon0d-26">
          <mxGeometry relative="1" as="geometry" />
        </mxCell>
        <mxCell id="QL_OkkcnzwJI8uLKon0d-94" value="n" style="edgeLabel;html=1;align=center;verticalAlign=middle;resizable=0;points=[];" vertex="1" connectable="0" parent="QL_OkkcnzwJI8uLKon0d-67">
          <mxGeometry x="0.0141" y="-1" relative="1" as="geometry">
            <mxPoint as="offset" />
          </mxGeometry>
        </mxCell>
        <mxCell id="QL_OkkcnzwJI8uLKon0d-68" style="rounded=0;orthogonalLoop=1;jettySize=auto;html=1;exitX=0.5;exitY=1;exitDx=0;exitDy=0;entryX=0.5;entryY=0;entryDx=0;entryDy=0;endArrow=none;startFill=0;" edge="1" parent="1" source="QL_OkkcnzwJI8uLKon0d-65" target="QL_OkkcnzwJI8uLKon0d-25">
          <mxGeometry relative="1" as="geometry" />
        </mxCell>
        <mxCell id="QL_OkkcnzwJI8uLKon0d-95" value="n" style="edgeLabel;html=1;align=center;verticalAlign=middle;resizable=0;points=[];" vertex="1" connectable="0" parent="QL_OkkcnzwJI8uLKon0d-68">
          <mxGeometry x="0.1155" y="-1" relative="1" as="geometry">
            <mxPoint as="offset" />
          </mxGeometry>
        </mxCell>
        <mxCell id="QL_OkkcnzwJI8uLKon0d-69" style="rounded=0;orthogonalLoop=1;jettySize=auto;html=1;exitX=0.5;exitY=1;exitDx=0;exitDy=0;entryX=0.445;entryY=-0.09;entryDx=0;entryDy=0;endArrow=none;startFill=0;entryPerimeter=0;" edge="1" parent="1" source="QL_OkkcnzwJI8uLKon0d-65" target="QL_OkkcnzwJI8uLKon0d-23">
          <mxGeometry relative="1" as="geometry" />
        </mxCell>
        <mxCell id="QL_OkkcnzwJI8uLKon0d-96" value="n" style="edgeLabel;html=1;align=center;verticalAlign=middle;resizable=0;points=[];" vertex="1" connectable="0" parent="QL_OkkcnzwJI8uLKon0d-69">
          <mxGeometry x="0.0793" y="-2" relative="1" as="geometry">
            <mxPoint as="offset" />
          </mxGeometry>
        </mxCell>
        <mxCell id="QL_OkkcnzwJI8uLKon0d-70" style="rounded=0;orthogonalLoop=1;jettySize=auto;html=1;exitX=0.5;exitY=1;exitDx=0;exitDy=0;entryX=0.5;entryY=0;entryDx=0;entryDy=0;endArrow=none;startFill=0;" edge="1" parent="1" source="QL_OkkcnzwJI8uLKon0d-65" target="QL_OkkcnzwJI8uLKon0d-24">
          <mxGeometry relative="1" as="geometry" />
        </mxCell>
        <mxCell id="QL_OkkcnzwJI8uLKon0d-97" value="n" style="edgeLabel;html=1;align=center;verticalAlign=middle;resizable=0;points=[];" vertex="1" connectable="0" parent="QL_OkkcnzwJI8uLKon0d-70">
          <mxGeometry x="-0.1826" y="-1" relative="1" as="geometry">
            <mxPoint as="offset" />
          </mxGeometry>
        </mxCell>
        <mxCell id="QL_OkkcnzwJI8uLKon0d-65" value="查看" style="rhombus;whiteSpace=wrap;html=1;" vertex="1" parent="1">
          <mxGeometry x="520" y="425" width="80" height="40" as="geometry" />
        </mxCell>
        <mxCell id="QL_OkkcnzwJI8uLKon0d-73" value="点赞" style="ellipse;whiteSpace=wrap;html=1;align=center;" vertex="1" parent="1">
          <mxGeometry x="600" y="410" width="60" height="32.5" as="geometry" />
        </mxCell>
        <mxCell id="QL_OkkcnzwJI8uLKon0d-83" style="rounded=0;orthogonalLoop=1;jettySize=auto;html=1;exitX=0.5;exitY=1;exitDx=0;exitDy=0;entryX=0.5;entryY=0;entryDx=0;entryDy=0;endArrow=none;startFill=0;" edge="1" parent="1" source="QL_OkkcnzwJI8uLKon0d-77" target="QL_OkkcnzwJI8uLKon0d-73">
          <mxGeometry relative="1" as="geometry" />
        </mxCell>
        <mxCell id="QL_OkkcnzwJI8uLKon0d-77" value="浏览" style="rhombus;whiteSpace=wrap;html=1;" vertex="1" parent="1">
          <mxGeometry x="630" y="332.5" width="80" height="40" as="geometry" />
        </mxCell>
        <mxCell id="QL_OkkcnzwJI8uLKon0d-89" style="rounded=0;orthogonalLoop=1;jettySize=auto;html=1;exitX=0;exitY=0.5;exitDx=0;exitDy=0;entryX=1;entryY=0.5;entryDx=0;entryDy=0;endArrow=none;startFill=0;" edge="1" parent="1" source="QL_OkkcnzwJI8uLKon0d-78" target="QL_OkkcnzwJI8uLKon0d-10">
          <mxGeometry relative="1" as="geometry" />
        </mxCell>
        <mxCell id="QL_OkkcnzwJI8uLKon0d-91" value="1" style="edgeLabel;html=1;align=center;verticalAlign=middle;resizable=0;points=[];" vertex="1" connectable="0" parent="QL_OkkcnzwJI8uLKon0d-89">
          <mxGeometry x="-0.008" y="2" relative="1" as="geometry">
            <mxPoint as="offset" />
          </mxGeometry>
        </mxCell>
        <mxCell id="QL_OkkcnzwJI8uLKon0d-78" value="提问" style="rhombus;whiteSpace=wrap;html=1;" vertex="1" parent="1">
          <mxGeometry x="390" y="442.5" width="80" height="40" as="geometry" />
        </mxCell>
        <mxCell id="QL_OkkcnzwJI8uLKon0d-79" value="评论" style="ellipse;whiteSpace=wrap;html=1;align=center;" vertex="1" parent="1">
          <mxGeometry x="660" y="427.5" width="60" height="32.5" as="geometry" />
        </mxCell>
        <mxCell id="QL_OkkcnzwJI8uLKon0d-80" value="收藏" style="ellipse;whiteSpace=wrap;html=1;align=center;" vertex="1" parent="1">
          <mxGeometry x="720" y="410" width="60" height="32.5" as="geometry" />
        </mxCell>
        <mxCell id="QL_OkkcnzwJI8uLKon0d-81" value="举报" style="ellipse;whiteSpace=wrap;html=1;align=center;" vertex="1" parent="1">
          <mxGeometry x="735" y="362.5" width="60" height="32.5" as="geometry" />
        </mxCell>
        <mxCell id="QL_OkkcnzwJI8uLKon0d-84" style="rounded=0;orthogonalLoop=1;jettySize=auto;html=1;entryX=0.5;entryY=0;entryDx=0;entryDy=0;endArrow=none;startFill=0;exitX=0.5;exitY=1;exitDx=0;exitDy=0;" edge="1" parent="1" source="QL_OkkcnzwJI8uLKon0d-77" target="QL_OkkcnzwJI8uLKon0d-79">
          <mxGeometry relative="1" as="geometry">
            <mxPoint x="670" y="390" as="sourcePoint" />
            <mxPoint x="650" y="429" as="targetPoint" />
          </mxGeometry>
        </mxCell>
        <mxCell id="QL_OkkcnzwJI8uLKon0d-85" style="rounded=0;orthogonalLoop=1;jettySize=auto;html=1;entryX=0;entryY=0;entryDx=0;entryDy=0;endArrow=none;startFill=0;exitX=0.5;exitY=1;exitDx=0;exitDy=0;" edge="1" parent="1" source="QL_OkkcnzwJI8uLKon0d-77" target="QL_OkkcnzwJI8uLKon0d-80">
          <mxGeometry relative="1" as="geometry">
            <mxPoint x="670" y="400" as="sourcePoint" />
            <mxPoint x="660" y="439" as="targetPoint" />
          </mxGeometry>
        </mxCell>
        <mxCell id="QL_OkkcnzwJI8uLKon0d-86" style="rounded=0;orthogonalLoop=1;jettySize=auto;html=1;entryX=0;entryY=0.5;entryDx=0;entryDy=0;endArrow=none;startFill=0;exitX=0.5;exitY=1;exitDx=0;exitDy=0;" edge="1" parent="1" source="QL_OkkcnzwJI8uLKon0d-77" target="QL_OkkcnzwJI8uLKon0d-81">
          <mxGeometry relative="1" as="geometry">
            <mxPoint x="670" y="400" as="sourcePoint" />
            <mxPoint x="670" y="449" as="targetPoint" />
          </mxGeometry>
        </mxCell>
        <mxCell id="QL_OkkcnzwJI8uLKon0d-98" style="rounded=0;orthogonalLoop=1;jettySize=auto;html=1;exitX=1;exitY=0.5;exitDx=0;exitDy=0;entryX=0.5;entryY=1;entryDx=0;entryDy=0;endArrow=none;startFill=0;" edge="1" parent="1" source="QL_OkkcnzwJI8uLKon0d-77" target="QL_OkkcnzwJI8uLKon0d-27">
          <mxGeometry relative="1" as="geometry" />
        </mxCell>
        <mxCell id="QL_OkkcnzwJI8uLKon0d-104" value="n" style="edgeLabel;html=1;align=center;verticalAlign=middle;resizable=0;points=[];" vertex="1" connectable="0" parent="QL_OkkcnzwJI8uLKon0d-98">
          <mxGeometry x="-0.0998" y="-1" relative="1" as="geometry">
            <mxPoint as="offset" />
          </mxGeometry>
        </mxCell>
      </root>
    </mxGraphModel>
  </diagram>
</mxfile>
